<?xml version="1.0" encoding="UTF-8" standalone="no"?><!DOCTYPE svg PUBLIC "-//W3C//DTD SVG 1.1//EN" "http://www.w3.org/Graphics/SVG/1.1/DTD/svg11.dtd"><svg width="100%" height="100%" viewBox="0 0 274 272" version="1.1" xmlns="http://www.w3.org/2000/svg" xmlns:xlink="http://www.w3.org/1999/xlink" xml:space="preserve" style="fill-rule:evenodd;clip-rule:evenodd;stroke-linejoin:round;stroke-miterlimit:1.41421;"><path d="M77.923,4.942c36.596,-4.685 74.287,-6.056 111.052,-4.04c28.917,22.255 56.231,47.648 80.477,74.816c4.299,36.16 5.235,73.442 2.76,109.848c-22.838,28.881 -48.827,56.213 -76.574,80.531c-36.596,4.685 -74.287,6.056 -111.052,4.04c-28.917,-22.255 -56.231,-47.648 -80.477,-74.816c-4.298,-36.16 -5.235,-73.442 -2.76,-109.848c22.838,-28.881 48.827,-56.213 76.574,-80.531Zm-11.815,184.546l0.403,1.202c-2.178,3.844 -5.23,6.47 -8.849,7.612c-11.382,3.592 -25.511,-8.068 -31.532,-26.022c-6.022,-17.954 -1.67,-35.446 9.711,-39.038c3.62,-1.142 7.68,-0.762 11.772,1.104l0.166,0.493l46.402,-16.428l19.234,54.329l-47.307,16.748Zm59.589,-21.096l-7.676,2.717l-19.235,-54.329l7.676,-2.717l19.235,54.329Zm-48.891,-31.249c7.06,-2.5 15.329,2.633 18.452,11.456c3.124,8.822 -0.073,18.014 -7.134,20.514c-7.061,2.5 -15.329,-2.633 -18.453,-11.456c-3.123,-8.822 0.074,-18.014 7.135,-20.514Zm61.172,26.901l-7.676,2.717l-19.234,-54.329l7.676,-2.717l19.234,54.329Zm17.312,-67.268c2.665,-16.384 12.499,-30.086 27.325,-35.335c16.665,-5.9 35.149,0.469 47.889,14.684l-27.388,9.696l-6.374,22.264l4.146,11.713l18.964,13.294l25.765,-9.122c-2.146,17.293 -12.174,31.937 -27.621,37.406c-14.827,5.249 -31.092,0.786 -43.471,-10.271l-31.941,11.308l-19.235,-54.329l31.941,-11.308Z" style="fill:#f7b32b;"/></svg>